<svg xmlns="http://www.w3.org/2000/svg" viewBox="0 0 22.56 20.67"><defs><style>.cls-1{fill:#1f3a8b;}</style></defs><title>Asset 1</title><g id="Layer_2" data-name="Layer 2"><g id="Layer_1-2" data-name="Layer 1"><path class="cls-1" d="M4.94,10.25l6.34,4.07,6.34-4.07a.88.88,0,0,0-.95-1.48l-4.51,2.9V.88a.88.88,0,1,0-1.76,0V11.67L5.89,8.77A.89.89,0,0,0,4.67,9a.87.87,0,0,0,.27,1.21M22.56,14.5v4.09a2.08,2.08,0,0,1-2.08,2.08H2.08A2.08,2.08,0,0,1,0,18.59V14.5a.88.88,0,1,1,1.76,0v4.09a.32.32,0,0,0,.32.32h18.4a.32.32,0,0,0,.32-.32V14.5a.88.88,0,1,1,1.76,0"/></g></g></svg>