<svg viewBox="0 0 91.01 86.64" xmlns="http://www.w3.org/2000/svg"><path d="m61.31 43.44a13.52 13.52 0 0 0 -13.5 13.5 2.7 2.7 0 0 0 5.4 0 8.1 8.1 0 0 1 8.1-8.1 2.7 2.7 0 0 0 0-5.4m16.2 13.5a16.2 16.2 0 1 0 -16.2 16.2 16.22 16.22 0 0 0 16.2-16.2m12.71 28.91a2.7 2.7 0 0 1 -3.82 0l-11.87-11.85a21.68 21.68 0 1 1 3.82-3.82l11.87 11.82a2.71 2.71 0 0 1 0 3.82m-49.64-13h-27a.53.53 0 0 1 0-.13v-32.21a5.41 5.41 0 0 0 -4.58-5.33l16.73-16.63 12.08-12 12.08 12 12.33 12.27a26.08 26.08 0 0 1 10.06 2.4l-3.53-3.51-11.57-11.53-3.85-3.82-13.64-13.57a2.77 2.77 0 0 0 -.88-.57 2 2 0 0 0 -.35-.07 2.78 2.78 0 0 0 -.64-.12 2.78 2.78 0 0 0 -.64.12 2 2 0 0 0 -.35.07 2.77 2.77 0 0 0 -.88.57l-13.67 13.57-3.84 3.82-11.59 11.53-5.85 5.79a2.82 2.82 0 0 0 1.68 5h5.4v32.28c0 3.06 2.12 5.53 4.74 5.53h33.36a26.27 26.27 0 0 1 -5.6-5.39m-21.66-24.31a2.7 2.7 0 0 0 2.7-2.7v-5.4a2.7 2.7 0 0 0 -5.4 0v5.4a2.7 2.7 0 0 0 2.7 2.7m-2.7 5.42a2.7 2.7 0 1 1 5.4 0v10.8h14.7a25.77 25.77 0 0 0 2.43 5.4h-19.83a2.7 2.7 0 0 1 -2.7-2.7z" fill="#fff"></path></svg>
