<svg xmlns="http://www.w3.org/2000/svg" viewBox="0 0 95.26 86.28"><defs><style>.cls-1{fill:#fff;}</style></defs><title>icon-document</title><g id="Layer_2" data-name="Layer 2"><g id="Layer_1-2" data-name="Layer 1"><path class="cls-1" d="M64.91,59.87a2.7,2.7,0,0,0-2.7,2.7V68a2.7,2.7,0,0,0,5.4,0v-5.4a2.7,2.7,0,0,0-2.7-2.7m11.93,10.8a2.7,2.7,0,0,0,2.7-2.7v-5.4a2.7,2.7,0,1,0-5.4,0V68a2.7,2.7,0,0,0,2.7,2.7M87,58.29l-16.17-16-16.16,16a4.26,4.26,0,0,1,2,3.65V81H85V61.94a4.27,4.27,0,0,1,2-3.65M71.24,37ZM95.1,61.12a2.6,2.6,0,0,1-2.47,1.76h-2.4v19a4.14,4.14,0,0,1-3.87,4.37h-31a4.15,4.15,0,0,1-3.88-4.37v-19H49.12a2.6,2.6,0,0,1-2.47-1.76,2.68,2.68,0,0,1,.83-3L69,36.69a2.57,2.57,0,0,1,.87-.57l.36-.08a2,2,0,0,1,.59-.1L71,36a1.65,1.65,0,0,1,.49.07,2.72,2.72,0,0,1,.4.09,2.78,2.78,0,0,1,.86.56l21.6,21.49a2.66,2.66,0,0,1,.76,2.95m-43-42.22a2.7,2.7,0,0,0,2.7,2.7H66l-14-14Zm-5.15,63a2.3,2.3,0,0,0,0,.26H8.1A8.1,8.1,0,0,1,0,74.07V16.2A8.1,8.1,0,0,1,8.1,8.1h.77V5.4A5.4,5.4,0,0,1,14.27,0H49.83a5.41,5.41,0,0,1,3.82,1.58L72.08,20a5.38,5.38,0,0,1,1.59,3.82v8.07l-.13-.07a6.2,6.2,0,0,0-1.13-.31,6.29,6.29,0,0,0-1.26-.17h-.33a6,6,0,0,0-1.64.22l-.67.16-.24.09V27H54.77a8.1,8.1,0,0,1-8.1-8.1V5.4H14.27V67.9H46.92v5.4H14.27a5.39,5.39,0,0,1-5.4-5.4V13.49H8.1a2.7,2.7,0,0,0-2.7,2.7V74.07a2.7,2.7,0,0,0,2.7,2.7H46.92Zm-24.58-56H39.52a2.7,2.7,0,0,0,0-5.4H22.34a2.7,2.7,0,0,0,0,5.4M52.21,38.51a2.7,2.7,0,0,0-2.7-2.7H22.34a2.7,2.7,0,0,0,0,5.4H49.51a2.7,2.7,0,0,0,2.7-2.7M36.93,51a2.7,2.7,0,0,1,0,5.4H22.34a2.7,2.7,0,0,1,0-5.4Z"></path></g></g></svg>
