<svg xmlns="http://www.w3.org/2000/svg" viewBox="0 0 17.6 25.6"><defs><style>.cls-1{fill:#fff;}</style></defs><title>Asset 1</title><g id="Layer_2" data-name="Layer 2"><g id="Layer_1-2" data-name="Layer 1"><path class="cls-1" d="M16,8.8a6.93,6.93,0,0,0-.15-1.45A6.23,6.23,0,0,0,15.43,6q-.13-.31-.3-.63A7.2,7.2,0,0,0,9.54,1.64a6.12,6.12,0,0,0-.74,0,5.85,5.85,0,0,0-.73,0,7.2,7.2,0,0,0-5.6,3.73q-.17.32-.3.63a6.83,6.83,0,0,0-.42,1.35A6.93,6.93,0,0,0,1.6,8.8c0,3.83,2.3,10.65,4.83,13.68q.15.18.3.33h0c.1.1.19.2.29.29l0,0,.28.24,0,0,.25.19.07,0,.23.13.11,0,.19.08.16.05.13,0a1.51,1.51,0,0,0,.6,0l.14,0,.16-.05.18-.08.11,0,.23-.13.07,0,.25-.19,0,0,.27-.24,0,0c.1-.09.19-.19.29-.29h0l.29-.33C13.7,19.45,16,12.63,16,8.8m1.6,0c0,3.74-2.33,11.67-5.62,15.13h0c-.14.14-.27.27-.41.39l0,0a4.24,4.24,0,0,1-.39.33l-.05,0-.37.25-.08.06a3.9,3.9,0,0,1-.35.19l-.1.05-.34.13-.12.05-.34.08-.12,0a3.7,3.7,0,0,1-.94,0l-.12,0-.34-.08-.12-.05-.34-.13-.1-.05A3.9,3.9,0,0,1,7,25L6.88,25l-.37-.25,0,0c-.13-.11-.26-.21-.39-.33l0,0c-.14-.12-.27-.25-.41-.39h0C2.34,20.47,0,12.54,0,8.8c0-.3,0-.6.05-.9A8.81,8.81,0,0,1,.69,5.38,8.82,8.82,0,0,1,7.9.05c.3,0,.6,0,.9,0s.6,0,.9.05a8.8,8.8,0,0,1,6.84,4.56c.13.25.26.5.37.77a8.82,8.82,0,0,1,.65,2.52c0,.3,0,.6,0,.9m-4.8,0a4,4,0,1,0-4,4,4,4,0,0,0,4-4M14,6.62A5.6,5.6,0,1,1,3.2,8.8a5.57,5.57,0,0,1,2-4.32,4.35,4.35,0,0,1,.43-.32,5.54,5.54,0,0,1,2.56-.93,5.44,5.44,0,0,1,.57,0,5.3,5.3,0,0,1,.57,0,5.54,5.54,0,0,1,2.56.93,4.35,4.35,0,0,1,.43.32A5.57,5.57,0,0,1,14,6.62M8.6,21a.8.8,0,0,1-.07,1.13.77.77,0,0,1-.53.21.8.8,0,0,1-.6-.27C6,20.53,4.59,17,4.05,15.48a.8.8,0,1,1,1.5-.56A24,24,0,0,0,8.6,21"/></g></g></svg>